name rise31.4854peak64.571fall78.6902.mot
datacolumns 19
datarows 36
range 0.53666700000000 0.59500100000000
endheader
time	ground_force1_vx	ground_force1_vy	ground_force1_vz	ground_force1_px	ground_force1_py	ground_force1_pz	ground_force2_vx	ground_force2_vy	ground_force2_vz	ground_force2_px	ground_force2_py	ground_force2_pz	ground_torque1_x	ground_torque1_y	ground_torque1_z	ground_torque2_x	ground_torque2_y	ground_torque2_z	
0.53666700000000	58.47582900000000	782.15157899999997	52.29884500000000	0.31103900000000	0.00000000000000	0.10901300000000	0.00000000000000	0.00000000000000	0.00000000000000	0.00000000000000	0.00000000000000	0.00000000000000	0.00000000000000	18.30674000000000	0.00000000000000	0.00000000000000	0.00000000000000	0.00000000000000	
0.53833600000000	57.83415900000000	783.25069299999996	52.36852300000000	0.30995400000000	0.00000000000000	0.10906300000000	0.00000000000000	0.00000000000000	0.00000000000000	0.00000000000000	0.00000000000000	0.00000000000000	0.00000000000000	18.34524300000000	0.00000000000000	0.00000000000000	0.00000000000000	0.00000000000000	
0.54000200000000	57.20222500000000	784.22421199999997	52.43288300000000	0.30889100000000	0.00000000000000	0.10911500000000	0.00000000000000	0.00000000000000	0.00000000000000	0.00000000000000	0.00000000000000	0.00000000000000	0.00000000000000	18.38069600000000	0.00000000000000	0.00000000000000	0.00000000000000	0.00000000000000	
0.54166300000000	56.58013300000000	785.07206900000006	52.49175300000000	0.30784800000000	0.00000000000000	0.10916800000000	0.00000000000000	0.00000000000000	0.00000000000000	0.00000000000000	0.00000000000000	0.00000000000000	0.00000000000000	18.41304900000000	0.00000000000000	0.00000000000000	0.00000000000000	0.00000000000000	
0.54333300000000	55.96792600000000	785.79440799999998	52.54494900000000	0.30682500000000	0.00000000000000	0.10922300000000	0.00000000000000	0.00000000000000	0.00000000000000	0.00000000000000	0.00000000000000	0.00000000000000	0.00000000000000	18.44224500000000	0.00000000000000	0.00000000000000	0.00000000000000	0.00000000000000	
0.54501000000000	55.36558200000000	786.39158399999997	52.59227600000000	0.30582100000000	0.00000000000000	0.10927900000000	0.00000000000000	0.00000000000000	0.00000000000000	0.00000000000000	0.00000000000000	0.00000000000000	0.00000000000000	18.46822100000000	0.00000000000000	0.00000000000000	0.00000000000000	0.00000000000000	
0.54666300000000	54.77302500000000	786.86418000000003	52.63353300000000	0.30483500000000	0.00000000000000	0.10933700000000	0.00000000000000	0.00000000000000	0.00000000000000	0.00000000000000	0.00000000000000	0.00000000000000	0.00000000000000	18.49090700000000	0.00000000000000	0.00000000000000	0.00000000000000	0.00000000000000	
0.54833800000000	54.19012500000000	787.21300900000006	52.66851600000000	0.30386600000000	0.00000000000000	0.10939500000000	0.00000000000000	0.00000000000000	0.00000000000000	0.00000000000000	0.00000000000000	0.00000000000000	0.00000000000000	18.51023300000000	0.00000000000000	0.00000000000000	0.00000000000000	0.00000000000000	
0.54999600000000	53.61670600000000	787.43912100000000	52.69702600000000	0.30291300000000	0.00000000000000	0.10945600000000	0.00000000000000	0.00000000000000	0.00000000000000	0.00000000000000	0.00000000000000	0.00000000000000	0.00000000000000	18.52612800000000	0.00000000000000	0.00000000000000	0.00000000000000	0.00000000000000	
0.55166900000000	53.05254600000000	787.54380700000002	52.71886800000000	0.30197500000000	0.00000000000000	0.10951700000000	0.00000000000000	0.00000000000000	0.00000000000000	0.00000000000000	0.00000000000000	0.00000000000000	0.00000000000000	18.53852100000000	0.00000000000000	0.00000000000000	0.00000000000000	0.00000000000000	
0.55333500000000	52.49738900000000	787.52859899999999	52.73385700000000	0.30105000000000	0.00000000000000	0.10958000000000	0.00000000000000	0.00000000000000	0.00000000000000	0.00000000000000	0.00000000000000	0.00000000000000	0.00000000000000	18.54734600000000	0.00000000000000	0.00000000000000	0.00000000000000	0.00000000000000	
0.55499900000000	51.95094200000000	787.39527499999997	52.74182500000000	0.30013700000000	0.00000000000000	0.10964400000000	0.00000000000000	0.00000000000000	0.00000000000000	0.00000000000000	0.00000000000000	0.00000000000000	0.00000000000000	18.55253700000000	0.00000000000000	0.00000000000000	0.00000000000000	0.00000000000000	
0.55667000000000	51.41288700000000	787.14585399999999	52.74261600000000	0.29923400000000	0.00000000000000	0.10970900000000	0.00000000000000	0.00000000000000	0.00000000000000	0.00000000000000	0.00000000000000	0.00000000000000	0.00000000000000	18.55403800000000	0.00000000000000	0.00000000000000	0.00000000000000	0.00000000000000	
0.55833700000000	50.88287900000000	786.78259800000001	52.73610000000000	0.29834000000000	0.00000000000000	0.10977600000000	0.00000000000000	0.00000000000000	0.00000000000000	0.00000000000000	0.00000000000000	0.00000000000000	0.00000000000000	18.55179900000000	0.00000000000000	0.00000000000000	0.00000000000000	0.00000000000000	
0.55999900000000	50.36055600000000	786.30800499999998	52.72216500000000	0.29745400000000	0.00000000000000	0.10984400000000	0.00000000000000	0.00000000000000	0.00000000000000	0.00000000000000	0.00000000000000	0.00000000000000	0.00000000000000	18.54577700000000	0.00000000000000	0.00000000000000	0.00000000000000	0.00000000000000	
0.56166300000000	49.84554200000000	785.72480499999995	52.70072900000000	0.29657300000000	0.00000000000000	0.10991300000000	0.00000000000000	0.00000000000000	0.00000000000000	0.00000000000000	0.00000000000000	0.00000000000000	0.00000000000000	18.53594200000000	0.00000000000000	0.00000000000000	0.00000000000000	0.00000000000000	
0.56333300000000	49.33744700000000	785.03595600000006	52.67173700000000	0.29569700000000	0.00000000000000	0.10998300000000	0.00000000000000	0.00000000000000	0.00000000000000	0.00000000000000	0.00000000000000	0.00000000000000	0.00000000000000	18.52227100000000	0.00000000000000	0.00000000000000	0.00000000000000	0.00000000000000	
0.56499900000000	48.83587900000000	784.24463300000002	52.63516200000000	0.29482400000000	0.00000000000000	0.11005500000000	0.00000000000000	0.00000000000000	0.00000000000000	0.00000000000000	0.00000000000000	0.00000000000000	0.00000000000000	18.50475500000000	0.00000000000000	0.00000000000000	0.00000000000000	0.00000000000000	
0.56666200000000	48.34044200000000	783.35422000000005	52.59101100000000	0.29395200000000	0.00000000000000	0.11012800000000	0.00000000000000	0.00000000000000	0.00000000000000	0.00000000000000	0.00000000000000	0.00000000000000	0.00000000000000	18.48339700000000	0.00000000000000	0.00000000000000	0.00000000000000	0.00000000000000	
0.56834700000000	47.85074200000000	782.36830199999997	52.53932300000000	0.29308000000000	0.00000000000000	0.11020200000000	0.00000000000000	0.00000000000000	0.00000000000000	0.00000000000000	0.00000000000000	0.00000000000000	0.00000000000000	18.45821400000000	0.00000000000000	0.00000000000000	0.00000000000000	0.00000000000000	
0.57000400000000	47.36638900000000	781.29065200000002	52.48017200000000	0.29220500000000	0.00000000000000	0.11027700000000	0.00000000000000	0.00000000000000	0.00000000000000	0.00000000000000	0.00000000000000	0.00000000000000	0.00000000000000	18.42923400000000	0.00000000000000	0.00000000000000	0.00000000000000	0.00000000000000	
0.57166600000000	46.88700300000000	780.12521900000002	52.41366600000000	0.29132700000000	0.00000000000000	0.11035400000000	0.00000000000000	0.00000000000000	0.00000000000000	0.00000000000000	0.00000000000000	0.00000000000000	0.00000000000000	18.39650300000000	0.00000000000000	0.00000000000000	0.00000000000000	0.00000000000000	
0.57333200000000	46.41221500000000	778.87611400000003	52.33994600000000	0.29044400000000	0.00000000000000	0.11043200000000	0.00000000000000	0.00000000000000	0.00000000000000	0.00000000000000	0.00000000000000	0.00000000000000	0.00000000000000	18.36007700000000	0.00000000000000	0.00000000000000	0.00000000000000	0.00000000000000	
0.57499600000000	45.94167100000000	777.54759799999999	52.25919000000000	0.28955500000000	0.00000000000000	0.11051100000000	0.00000000000000	0.00000000000000	0.00000000000000	0.00000000000000	0.00000000000000	0.00000000000000	0.00000000000000	18.32003200000000	0.00000000000000	0.00000000000000	0.00000000000000	0.00000000000000	
0.57666900000000	45.47503300000000	776.14406799999995	52.17160900000000	0.28865800000000	0.00000000000000	0.11059100000000	0.00000000000000	0.00000000000000	0.00000000000000	0.00000000000000	0.00000000000000	0.00000000000000	0.00000000000000	18.27645200000000	0.00000000000000	0.00000000000000	0.00000000000000	0.00000000000000	
0.57833000000000	45.01198200000000	774.67003799999998	52.07744700000000	0.28775200000000	0.00000000000000	0.11067300000000	0.00000000000000	0.00000000000000	0.00000000000000	0.00000000000000	0.00000000000000	0.00000000000000	0.00000000000000	18.22944200000000	0.00000000000000	0.00000000000000	0.00000000000000	0.00000000000000	
0.58000000000000	44.55222100000000	773.13012800000001	51.97698200000000	0.28683500000000	0.00000000000000	0.11075600000000	0.00000000000000	0.00000000000000	0.00000000000000	0.00000000000000	0.00000000000000	0.00000000000000	0.00000000000000	18.17911500000000	0.00000000000000	0.00000000000000	0.00000000000000	0.00000000000000	
0.58167000000000	44.09547500000000	771.52904400000000	51.87051900000000	0.28590700000000	0.00000000000000	0.11084000000000	0.00000000000000	0.00000000000000	0.00000000000000	0.00000000000000	0.00000000000000	0.00000000000000	0.00000000000000	18.12560300000000	0.00000000000000	0.00000000000000	0.00000000000000	0.00000000000000	
0.58333500000000	43.64149300000000	769.87156200000004	51.75839700000000	0.28496600000000	0.00000000000000	0.11092500000000	0.00000000000000	0.00000000000000	0.00000000000000	0.00000000000000	0.00000000000000	0.00000000000000	0.00000000000000	18.06904900000000	0.00000000000000	0.00000000000000	0.00000000000000	0.00000000000000	
0.58500200000000	43.19005000000000	768.16251299999999	51.64097700000000	0.28401100000000	0.00000000000000	0.11101100000000	0.00000000000000	0.00000000000000	0.00000000000000	0.00000000000000	0.00000000000000	0.00000000000000	0.00000000000000	18.00960700000000	0.00000000000000	0.00000000000000	0.00000000000000	0.00000000000000	
0.58666800000000	42.74094400000000	766.40676699999995	51.51865000000000	0.28304100000000	0.00000000000000	0.11109900000000	0.00000000000000	0.00000000000000	0.00000000000000	0.00000000000000	0.00000000000000	0.00000000000000	0.00000000000000	17.94744600000000	0.00000000000000	0.00000000000000	0.00000000000000	0.00000000000000	
0.58833400000000	42.29400300000000	764.60921099999996	51.39182500000000	0.28205600000000	0.00000000000000	0.11118800000000	0.00000000000000	0.00000000000000	0.00000000000000	0.00000000000000	0.00000000000000	0.00000000000000	0.00000000000000	17.88274500000000	0.00000000000000	0.00000000000000	0.00000000000000	0.00000000000000	
0.58999600000000	41.84908000000000	762.77473799999996	51.26093500000000	0.28105500000000	0.00000000000000	0.11127700000000	0.00000000000000	0.00000000000000	0.00000000000000	0.00000000000000	0.00000000000000	0.00000000000000	0.00000000000000	17.81569200000000	0.00000000000000	0.00000000000000	0.00000000000000	0.00000000000000	
0.59166600000000	41.40605400000000	760.90822700000001	51.12642600000000	0.28003800000000	0.00000000000000	0.11136800000000	0.00000000000000	0.00000000000000	0.00000000000000	0.00000000000000	0.00000000000000	0.00000000000000	0.00000000000000	17.74648600000000	0.00000000000000	0.00000000000000	0.00000000000000	0.00000000000000	
0.59333000000000	40.96483200000000	759.01452700000004	50.98876100000000	0.27900300000000	0.00000000000000	0.11146000000000	0.00000000000000	0.00000000000000	0.00000000000000	0.00000000000000	0.00000000000000	0.00000000000000	0.00000000000000	17.67533300000000	0.00000000000000	0.00000000000000	0.00000000000000	0.00000000000000	
0.59500100000000	40.52534300000000	757.09844199999998	50.84841500000000	0.27795100000000	0.00000000000000	0.11155400000000	0.00000000000000	0.00000000000000	0.00000000000000	0.00000000000000	0.00000000000000	0.00000000000000	0.00000000000000	17.60244600000000	0.00000000000000	0.00000000000000	0.00000000000000	0.00000000000000	
